<svg id="Calque_1" data-name="Calque 1" xmlns="http://www.w3.org/2000/svg" viewBox="0 0 525.65 276.36"><defs><style>.cls-1{fill:#ffffff;}</style></defs><g id="Calque_3" data-name="Calque 3"><path class="cls-1" d="M214.2,243.84c-6.27-8.16-29.5-26.07-41.52-31.7S154,200.87,155.43,196.82s8.77-3.24,18.41-.94,29.76,1.28,33.45-13.07c3.62-14.08-8.64-27.13-22.27-36s-23.23-17.9-32.6-26.51c-10.86-10-24.54-11.34-35-7.39-15.21,5.75-22.93,23.62-12.38,43.83s24.69,29.43,25.5,45.87-18.67,57.74,1.28,65.7,24.54-19.29,17.69-38a183.14,183.14,0,0,1-8.79-30.81c-1.56-9-9.48-21.83-17.25-34.12s-15.36-31.67.46-37.34c14.1-5,22,1.57,30.33,9.05,7.72,6.94,24.28,22.72,27,28.8,3.33,7.41,3.29,21.43-8.12,21.31-12.35-.12-24.69-6-28.17,6.39-3.15,11.24,9.24,18.85,13.81,20.89s23.88,15,28,32.27,11.86,33.05,27,28c15.27-5.08,7.84-21.36.43-31Z"/><path class="cls-1" d="M275.56,70.57c-6.28-9-14.27-17.19-12.32-30.6s.41-21.12-4.95-27.67S240.1,3.59,230,7.6c-10.73,4.25-21.54,23.85-26.66,32-5.5,8.72-9.37,12.65-25.87,25.56s7.72,31.11,19,22.33,17-21.64,20-33.29c2.82-10.94,1.93-9.16,8.78-27.48s29.19-9.8,27.9,1.32c-.73,6.3-3.22,20.28,0,30.09,3.59,11-7.13,14.25-17.06,17s-30.94,7.49-40.18,29.61c-9.34,22.35,10.48,42.65,31,39.91,23.12-3.1,25.33-25,34.35-29s31.46,6.21,36.79-8.88c6.55-18.54-15.45-26-22.51-36.16Zm5.92,29.61c-3,6.37-18.72-1.28-25,3.13-10.53,7.4-12.19,28.63-30.59,23.06-6.92-2.09-15.41-15.65-8.7-25.76s26-13.22,32-17.25,11.14-9.89,18.35-.93,17,11.37,14,17.74Z"/><path class="cls-1" d="M328.52,39.49c-13.91-13.3-29-11-35.4-3.88-9.27,10.42-6.51,21.08,12,37.88,17.75,16.09,22.22,27.73,24.83,41s-6,30.29-8.8,42.79c-2.28,10.34-4.37,32.59-4.37,47.39,0,11.36-.17,42.06-16.21,39.75-11.2-1.61-9.54-34.75-7.74-49.33,1.58-12.86,4.32-37.15,2.79-45.61-1.84-10.1-14.81-16.86-22.95-11.9S260.84,152.06,258.59,163s-5.67,26.71-15.46,32.33c-16.45,9.44-28.18,17.91-21,27.77,7.3,10,28,.28,36-17.18s10.09-54.43,19.1-56.77,11.52,3.21,11.61,16.28-5.52,46.89-7.37,60.34c-1.94,14-10,39.39,10.67,46.62,19.91,6.94,38.14-8.76,33.14-36.63-2.43-13.5.12-52.14,3.72-66.4,4.2-16.69,19.22-47.92,21.21-68.62,2.59-26.92-6.77-46.91-21.74-61.2Z"/><path class="cls-1" d="M466.36,113.4c21.36,1.12,61.51-3.29,59.2-23.84-2.11-18.71-27.86-12.76-41-3.87s-24.77,13.73-45.26,18.37-27.78,11.54-28.47,22.87c-.66,10.74,12.07,17.69,30.77,24,19.86,6.73,42.72,14.27,40,31.89s-15.49,21.88-32.48,25.31-42,7-56.36,10.54c-15.7,3.81-34.8,7.52-36.86,23.47C353.47,261,372.8,267.44,399.39,267c18.65-.3,31.87,3.28,38.66,4.89,12.8,3,38.72,5.17,41.39-12.81,1.82-12.26-14-19.52-34.53-16.1-14,2.35-29.85,8.65-48,10.78-17.7,2.07-28.16-.34-28.64-10-.61-12.48,27.24-14.16,42.08-17.48,19.14-4.28,54.46-5.37,68-8.07,17.2-3.41,29.27-11,32.8-23.24,5.05-17.51-8.51-31.92-36-42.52s-45.6-17-50-22.12c-9-10.5,27.61-17.68,41.19-17Z"/><path class="cls-1" d="M463.14,19.73c-17.93-16.61-58.52,11.75-69.64,25.1C383.29,57.1,374.92,69,375.29,84.19c.33,13.74,2,18.15,3.41,32.43.81,8.36-3.65,16.6-14.76,26.33-11.89,10.42-18.74,26.67-8.75,37.2,9.4,9.91,25.61,4.28,37.33,4.5s48.41,16.29,51-2.35-33.8-14.82-52.16-9.1c-16.67,5.19-27.16,1.86-28.61-8.21s17.22-24.12,22.24-32.39c4.84-8,3.41-15.32,2.65-25.33-.72-9.34-2.9-16,1.21-23.74,9-17,28.92-17,49.69-23.66s38.45-27.36,24.65-40.14Z"/><path class="cls-1" d="M154.75.65c-19-4.07-45.83,12-60.19,21.89C79.42,33,68.77,42.43,43.1,54.54,28.33,61.5,4.91,63.47.28,83c-1.34,5.64,2.05,16.25,12.9,23.78,11.12,7.72,25.79,14.86,35.18,24,13.22,12.92,28,33.56,27.69,60.85C75.68,221.4,31.72,256.46,47.53,271c10.68,9.83,24.27,5.86,34.74-9.72,11.45-17.06,13.92-55.87,7.36-77.66C83.71,164,79.49,151.8,70.77,139.18s-13.14-13.21-1-28c9.33-11.41,21.77-17.42,40.44-16.66s25-18.33,19.09-24.84S99.78,67.07,82.93,80.21c-14.16,11-19.51,24.82-25.5,32.07a8.91,8.91,0,0,1-11.27,2.09C35.51,108.32,20.29,93,33.61,79.05c16-16.72,41.4-29.38,62.22-30.44,25.09-1.28,45.12,1.86,62.23-7.71C179.27,29,173.11,4.56,154.75.63Z"/></g></svg>